<svg height="20px" width="20px" viewBox="0 0 9 13" fill="none" xmlns="http://www.w3.org/2000/svg" xmlns:xlink="http://www.w3.org/1999/xlink">
	<desc>
			Created with Pixso.
	</desc>
	<defs/>
	<path id="Vector" d="M-0.69 3.98C-0.69 2.74 -0.2 1.54 0.68 0.67C1.56 -0.21 2.75 -0.71 4 -0.71C5.24 -0.71 6.43 -0.21 7.31 0.67C8.19 1.54 8.68 2.74 8.68 3.98C8.68 4.73 8.44 5.59 8.1 6.43C7.75 7.29 7.29 8.16 6.8 8.97C6.36 9.7 5.87 10.41 5.36 11.1C4.93 11.66 4.53 12.12 4.29 12.31C4.2 12.38 4.1 12.42 4 12.42C3.89 12.42 3.79 12.38 3.7 12.31C3.46 12.12 3.06 11.66 2.63 11.1C2.12 10.41 1.64 9.7 1.19 8.97C0.7 8.16 0.24 7.29 -0.11 6.43C-0.45 5.59 -0.69 4.73 -0.69 3.98ZM4 6.01C4.53 6.01 5.05 5.8 5.43 5.42C5.81 5.03 6.03 4.52 6.03 3.98C6.03 3.44 5.81 2.92 5.43 2.54C5.05 2.16 4.53 1.95 4 1.95C3.46 1.95 2.94 2.16 2.56 2.54C2.18 2.92 1.96 3.44 1.96 3.98C1.96 4.52 2.18 5.03 2.56 5.42C2.94 5.8 3.46 6.01 4 6.01Z" fill="#FFFFFF" fill-opacity="1.000000" fill-rule="evenodd"/>
</svg>
